<?xml version="1.0" encoding="us-ascii" standalone="no"?><svg xmlns="http://www.w3.org/2000/svg" xmlns:xlink="http://www.w3.org/1999/xlink" contentStyleType="text/css" height="572px" preserveAspectRatio="none" style="width:464px;height:572px;background:#FFFFFF;" version="1.1" viewBox="0 0 464 572" width="464px" zoomAndPan="magnify"><defs/><g><!--cluster Todo Web Application--><g id="cluster_Todo Web Application"><rect fill="none" height="559" rx="2.5" ry="2.5" style="stroke:#181818;stroke-width:1.0;" width="333.46" x="125" y="7"/><text fill="#000000" font-family="sans-serif" font-size="14" font-weight="bold" lengthAdjust="spacing" textLength="172" x="205.73" y="21.9951">Todo Web Application</text></g><g id="elem_UC1"><ellipse cx="291.73" cy="432.998" fill="#F1F1F1" rx="68.24" ry="16.048" style="stroke:#181818;stroke-width:0.5;"/><text fill="#000000" font-family="sans-serif" font-size="14" lengthAdjust="spacing" textLength="88" x="244.73" y="436.7456">Authenticate</text></g><g id="elem_UC2"><ellipse cx="291.7298" cy="362" fill="#F1F1F1" rx="86.5998" ry="19.72" style="stroke:#181818;stroke-width:0.5;"/><text fill="#000000" font-family="sans-serif" font-size="14" lengthAdjust="spacing" textLength="134" x="224.7298" y="364.8466">View Own Todo List</text></g><g id="elem_UC3"><ellipse cx="291.7296" cy="217.0019" fill="#F1F1F1" rx="62.4096" ry="14.8819" style="stroke:#181818;stroke-width:0.5;"/><text fill="#000000" font-family="sans-serif" font-size="14" lengthAdjust="spacing" textLength="71" x="253.2296" y="220.7495">Add Users</text></g><g id="elem_UC4"><ellipse cx="291.7318" cy="286.9964" fill="#F1F1F1" rx="89.2318" ry="20.2464" style="stroke:#181818;stroke-width:0.5;"/><text fill="#000000" font-family="sans-serif" font-size="14" lengthAdjust="spacing" textLength="140" x="221.7318" y="289.843">Appoint Sub-Admins</text></g><g id="elem_UC5"><ellipse cx="291.7347" cy="64.0029" fill="#F1F1F1" rx="98.6147" ry="22.1229" style="stroke:#181818;stroke-width:0.5;"/><text fill="#000000" font-family="sans-serif" font-size="14" lengthAdjust="spacing" textLength="161" x="211.2347" y="66.8496">View Lower Rank Tasks</text></g><g id="elem_UC6"><ellipse cx="291.7251" cy="143.995" fill="#F1F1F1" rx="104.0751" ry="23.215" style="stroke:#181818;stroke-width:0.5;"/><text fill="#000000" font-family="sans-serif" font-size="14" lengthAdjust="spacing" textLength="173" x="205.2251" y="146.8417">Modify Lower Rank Tasks</text></g><g id="elem_UC7"><ellipse cx="291.7292" cy="516.9958" fill="#F1F1F1" rx="150.7292" ry="32.5458" style="stroke:#181818;stroke-width:0.5;"/><text fill="#000000" font-family="sans-serif" font-size="14" lengthAdjust="spacing" textLength="272" x="155.7292" y="519.8425">Sub-Admin Appoints Lower Sub-Admins</text></g><!--entity admin--><g id="elem_admin"><ellipse cx="43.5" cy="204.35" fill="#F1F1F1" rx="8" ry="8" style="stroke:#181818;stroke-width:0.5;"/><path d="M43.5,212.35 L43.5,239.35 M30.5,220.35 L56.5,220.35 M43.5,239.35 L30.5,254.35 M43.5,239.35 L56.5,254.35 " fill="none" style="stroke:#181818;stroke-width:0.5;"/><text fill="#000000" font-family="sans-serif" font-size="14" lengthAdjust="spacing" textLength="43" x="22" y="268.8451">Admin</text></g><!--entity subAdmin--><g id="elem_subAdmin"><ellipse cx="43.5" cy="443.35" fill="#F1F1F1" rx="8" ry="8" style="stroke:#181818;stroke-width:0.5;"/><path d="M43.5,451.35 L43.5,478.35 M30.5,459.35 L56.5,459.35 M43.5,478.35 L30.5,493.35 M43.5,478.35 L56.5,493.35 " fill="none" style="stroke:#181818;stroke-width:0.5;"/><text fill="#000000" font-family="sans-serif" font-size="14" lengthAdjust="spacing" textLength="75" x="6" y="507.8451">Sub-Admin</text></g><!--entity user--><g id="elem_user"><ellipse cx="43.5" cy="332.35" fill="#F1F1F1" rx="8" ry="8" style="stroke:#181818;stroke-width:0.5;"/><path d="M43.5,340.35 L43.5,367.35 M30.5,348.35 L56.5,348.35 M43.5,367.35 L30.5,382.35 M43.5,367.35 L56.5,382.35 " fill="none" style="stroke:#181818;stroke-width:0.5;"/><text fill="#000000" font-family="sans-serif" font-size="14" lengthAdjust="spacing" textLength="32" x="27.5" y="396.8451">User</text></g><!--link admin to UC1--><g id="link_admin_UC1"><path d="M64.92,272.52 C70.36,283.25 76.09,294.99 81,306 C99.04,346.48 83.03,370.54 117,399 C146.33,423.57 188.22,432.29 223.52,434.75 " fill="none" id="admin-UC1" style="stroke:#181818;stroke-width:1.0;"/></g><!--link admin to UC2--><g id="link_admin_UC2"><path d="M65.46,271.12 C78.02,290.06 95.7,311.82 117,325 C144.28,341.87 178.06,351.14 208.57,356.2 " fill="none" id="admin-UC2" style="stroke:#181818;stroke-width:1.0;"/></g><!--link admin to UC3--><g id="link_admin_UC3"><path d="M65.49,232.55 C101.84,230.04 177.72,224.8 231.34,221.1 " fill="none" id="admin-UC3" style="stroke:#181818;stroke-width:1.0;"/></g><!--link admin to UC4--><g id="link_admin_UC4"><path d="M65.49,238.52 C100.56,246.07 172.43,261.54 225.6,272.98 " fill="none" id="admin-UC4" style="stroke:#181818;stroke-width:1.0;"/></g><!--link admin to UC5--><g id="link_admin_UC5"><path d="M56.11,195.44 C67.06,165.71 86.42,125.91 117,103 C140.01,85.76 169.22,75.9 197.11,70.33 " fill="none" id="admin-UC5" style="stroke:#181818;stroke-width:1.0;"/></g><!--link admin to UC6--><g id="link_admin_UC6"><path d="M65.5,216.79 C79.36,206.21 98.35,193.17 117,185 C144.96,172.75 177.12,163.85 206.11,157.55 " fill="none" id="admin-UC6" style="stroke:#181818;stroke-width:1.0;"/></g><!--link subAdmin to UC1--><g id="link_subAdmin_UC1"><path d="M81.36,467.01 C122.01,460.41 187.88,449.71 234.87,442.07 " fill="none" id="subAdmin-UC1" style="stroke:#181818;stroke-width:1.0;"/></g><!--link subAdmin to UC2--><g id="link_subAdmin_UC2"><path d="M74.19,434.48 C86.15,421.38 100.92,407.84 117,399 C145.37,383.4 179.7,374.37 210.32,369.15 " fill="none" id="subAdmin-UC2" style="stroke:#181818;stroke-width:1.0;"/></g><!--link subAdmin to UC7--><g id="link_subAdmin_UC7"><path d="M81.36,479.59 C106.32,484.05 140.77,490.2 174.53,496.24 " fill="none" id="subAdmin-UC7" style="stroke:#181818;stroke-width:1.0;"/></g><!--link user to UC1--><g id="link_user_UC1"><path d="M59.78,371.39 C74.09,379.79 96.3,391.85 117,399 C153.89,411.74 196.94,420.21 230.95,425.51 " fill="none" id="user-UC1" style="stroke:#181818;stroke-width:1.0;"/></g><!--link user to UC2--><g id="link_user_UC2"><path d="M59.9,362 C88.49,362 151.66,362 204.71,362 " fill="none" id="user-UC2" style="stroke:#181818;stroke-width:1.0;"/></g><!--SRC=[TP7DRiCW48Jl-nGZttseytUsUaqLgKtQCpQR1CK52x2igkgxDo2Ju4QzxJ0ViylIyT736rXrEdj8PRdrocWIhJSMHIq_bIuW74Ieql7Rq9HtomrDdRi7npOQmxMWa2ZqgMCKUoCDFhX1tVUTQaNeLE2R4CXMk2jI3_xCsWUJOyRX-IdttnMFs8qQCMkhd9-eQfOY9S8KRZ8NCxFlZT8UjqSaQldGQ6j6jdWL-eAzS9S4hdBmnKXr_FeFNUVehIEc6TnqxM6K3VqGnPMZBECECb7bOf6BPIvMkLXJ-gKKEDVL7xsXy7c9lTSL_G80]--></g></svg>