<?xml version="1.0" encoding="us-ascii" standalone="no"?><svg xmlns="http://www.w3.org/2000/svg" xmlns:xlink="http://www.w3.org/1999/xlink" contentStyleType="text/css" height="1417.7083px" preserveAspectRatio="none" style="width:489px;height:1417px;" version="1.1" viewBox="0 0 489 1417" width="489.5833px" zoomAndPan="magnify"><defs><linearGradient id="gzap7wo08m6pb0" x1="50%" x2="50%" y1="0%" y2="100%"><stop offset="0%" stop-color="#D3F198"/><stop offset="100%" stop-color="#B5E853"/></linearGradient></defs><g><!--cluster Project SE Application--><g id="cluster_Project SE Application"><rect fill="#151515" height="1388.5417" rx="20.8333" ry="20.8333" style="stroke:#B5E853;stroke-width:2.0833333333333335;" width="347.2917" x="131.25" y="17.7083"/><text fill="#6D8B32" font-family="Verdana" font-size="12.5" font-weight="bold" lengthAdjust="spacing" textLength="160.4167" x="224.6875" y="36.6028">Project SE Application</text></g><g id="elem_UC1"><ellipse cx="304.9003" cy="438.5467" fill="url(#gzap7wo08m6pb0)" rx="95.5983" ry="21.6197" style="stroke:#D3F198;stroke-width:2.0833333333333335;"/><text fill="#151515" font-family="Verdana" font-size="12.5" lengthAdjust="spacing" textLength="113.5417" x="248.1295" y="440.7908">User Registration</text></g><g id="elem_UC2"><ellipse cx="304.9007" cy="1276.0447" fill="url(#gzap7wo08m6pb0)" rx="96.3695" ry="21.7739" style="stroke:#D3F198;stroke-width:2.0833333333333335;"/><text fill="#151515" font-family="Verdana" font-size="12.5" lengthAdjust="spacing" textLength="115.625" x="247.0882" y="1278.2888">Encrypt Password</text></g><g id="elem_UC3"><ellipse cx="304.8938" cy="1361.4621" fill="url(#gzap7wo08m6pb0)" rx="125.9042" ry="27.6808" style="stroke:#D3F198;stroke-width:2.0833333333333335;"/><text fill="#151515" font-family="Verdana" font-size="12.5" lengthAdjust="spacing" textLength="188.5417" x="210.623" y="1363.7062">Store User Data in Database</text></g><g id="elem_UC4"><ellipse cx="304.891" cy="517.7067" fill="url(#gzap7wo08m6pb0)" rx="67.9431" ry="20.7797" style="stroke:#D3F198;stroke-width:2.0833333333333335;"/><text fill="#151515" font-family="Verdana" font-size="12.5" lengthAdjust="spacing" textLength="68.75" x="270.516" y="519.9508">User Login</text></g><g id="elem_UC5"><ellipse cx="304.8946" cy="1194.7956" fill="url(#gzap7wo08m6pb0)" rx="102.3113" ry="22.9623" style="stroke:#D3F198;stroke-width:2.0833333333333335;"/><text fill="#151515" font-family="Verdana" font-size="12.5" lengthAdjust="spacing" textLength="131.25" x="239.2696" y="1197.0397">Generate JWT Token</text></g><g id="elem_UC6"><ellipse cx="304.897" cy="1101.0419" fill="url(#gzap7wo08m6pb0)" rx="156.9804" ry="33.8961" style="stroke:#D3F198;stroke-width:2.0833333333333335;"/><text fill="#151515" font-family="Verdana" font-size="12.5" lengthAdjust="spacing" textLength="258.3333" x="175.7304" y="1103.286">Decrypt Token and Validate Credentials</text></g><g id="elem_UC7"><ellipse cx="304.9002" cy="600.003" fill="url(#gzap7wo08m6pb0)" rx="114.0252" ry="25.305" style="stroke:#D3F198;stroke-width:2.0833333333333335;"/><text fill="#151515" font-family="Verdana" font-size="12.5" lengthAdjust="spacing" textLength="160.4167" x="224.6919" y="602.247">Navigate to Choice Page</text></g><g id="elem_UC8"><ellipse cx="304.893" cy="684.3723" fill="url(#gzap7wo08m6pb0)" rx="98.3201" ry="22.164" style="stroke:#D3F198;stroke-width:2.0833333333333335;"/><text fill="#151515" font-family="Verdana" font-size="12.5" lengthAdjust="spacing" textLength="120.8333" x="244.4763" y="686.6164">Select Today Page</text></g><g id="elem_UC9"><ellipse cx="304.899" cy="765.6298" fill="url(#gzap7wo08m6pb0)" rx="100.701" ry="22.6402" style="stroke:#D3F198;stroke-width:2.0833333333333335;"/><text fill="#151515" font-family="Verdana" font-size="12.5" lengthAdjust="spacing" textLength="127.0833" x="241.3573" y="767.8739">Select Weekly Page</text></g><g id="elem_UC10"><ellipse cx="304.8937" cy="847.9183" fill="url(#gzap7wo08m6pb0)" rx="102.7166" ry="23.0433" style="stroke:#D3F198;stroke-width:2.0833333333333335;"/><text fill="#151515" font-family="Verdana" font-size="12.5" lengthAdjust="spacing" textLength="132.2917" x="238.7479" y="850.1624">Select Monthly Page</text></g><g id="elem_UC11"><ellipse cx="304.899" cy="930.2131" fill="url(#gzap7wo08m6pb0)" rx="100.701" ry="22.6402" style="stroke:#D3F198;stroke-width:2.0833333333333335;"/><text fill="#151515" font-family="Verdana" font-size="12.5" lengthAdjust="spacing" textLength="127.0833" x="241.3573" y="932.4572">Select Annual Page</text></g><g id="elem_UC12"><ellipse cx="304.8922" cy="1010.4151" fill="url(#gzap7wo08m6pb0)" rx="75.3088" ry="20.7797" style="stroke:#D3F198;stroke-width:2.0833333333333335;"/><text fill="#151515" font-family="Verdana" font-size="12.5" lengthAdjust="spacing" textLength="79.1667" x="265.3088" y="1012.6591">Create Note</text></g><g id="elem_UC13"><ellipse cx="304.8924" cy="87.4993" fill="url(#gzap7wo08m6pb0)" rx="119.6841" ry="26.4368" style="stroke:#D3F198;stroke-width:2.0833333333333335;"/><text fill="#151515" font-family="Verdana" font-size="12.5" lengthAdjust="spacing" textLength="173.9583" x="217.9133" y="89.7434">Add Text and Date to Note</text></g><g id="elem_UC14"><ellipse cx="304.8985" cy="174.9964" fill="url(#gzap7wo08m6pb0)" rx="110.6068" ry="24.6214" style="stroke:#D3F198;stroke-width:2.0833333333333335;"/><text fill="#151515" font-family="Verdana" font-size="12.5" lengthAdjust="spacing" textLength="152.0833" x="228.8568" y="177.2404">Save Note to Database</text></g><g id="elem_UC15"><ellipse cx="304.8935" cy="261.4537" fill="url(#gzap7wo08m6pb0)" rx="112.7372" ry="25.0474" style="stroke:#D3F198;stroke-width:2.0833333333333335;"/><text fill="#151515" font-family="Verdana" font-size="12.5" lengthAdjust="spacing" textLength="157.2917" x="226.2477" y="263.6978">Delete All Today's Notes</text></g><g id="elem_UC16"><ellipse cx="304.8986" cy="352.0881" fill="url(#gzap7wo08m6pb0)" rx="131.3257" ry="28.7651" style="stroke:#D3F198;stroke-width:2.0833333333333335;"/><text fill="#151515" font-family="Verdana" font-size="12.5" lengthAdjust="spacing" textLength="201.0417" x="204.3778" y="354.3321">Delete Selected Monthly Notes</text></g><!--entity User--><g id="elem_User"><ellipse cx="48.4375" cy="524.5" fill="url(#gzap7wo08m6pb0)" rx="8.3333" ry="8.3333" style="stroke:#D3F198;stroke-width:1.0416666666666667;"/><path d="M48.4375,532.8333 L48.4375,560.9583 M34.8958,541.1667 L61.9792,541.1667 M48.4375,560.9583 L34.8958,576.5833 M48.4375,560.9583 L61.9792,576.5833 " fill="none" style="stroke:#D3F198;stroke-width:1.0416666666666667;"/><text fill="#EAEAEA" font-family="Verdana" font-size="12.5" lengthAdjust="spacing" textLength="30.2083" x="33.3333" y="595.4778">User</text></g><!--entity System--><g id="elem_System"><ellipse cx="48.4375" cy="1159.9167" fill="url(#gzap7wo08m6pb0)" rx="8.3333" ry="8.3333" style="stroke:#D3F198;stroke-width:1.0416666666666667;"/><path d="M48.4375,1168.25 L48.4375,1196.375 M34.8958,1176.5833 L61.9792,1176.5833 M48.4375,1196.375 L34.8958,1212 M48.4375,1196.375 L61.9792,1212 " fill="none" style="stroke:#D3F198;stroke-width:1.0416666666666667;"/><text fill="#EAEAEA" font-family="Verdana" font-size="12.5" lengthAdjust="spacing" textLength="46.875" x="25" y="1230.8944">System</text></g><!--entity Database--><g id="elem_Database"><ellipse cx="48.4375" cy="1326.5833" fill="url(#gzap7wo08m6pb0)" rx="8.3333" ry="8.3333" style="stroke:#D3F198;stroke-width:1.0416666666666667;"/><path d="M48.4375,1334.9167 L48.4375,1363.0417 M34.8958,1343.25 L61.9792,1343.25 M48.4375,1363.0417 L34.8958,1378.6667 M48.4375,1363.0417 L61.9792,1378.6667 " fill="none" style="stroke:#D3F198;stroke-width:1.0416666666666667;"/><text fill="#EAEAEA" font-family="Verdana" font-size="12.5" lengthAdjust="spacing" textLength="63.5417" x="16.6667" y="1397.5611">Database</text></g><!--link User to UC1--><g id="link_User_UC1"><path d="M69,530.3333 C82.2188,512.9167 101.1875,491.7604 122.9167,479.1667 C151.1875,462.7813 179.3471,454.1648 210.4409,448.3211 " fill="none" id="User-to-UC1" style="stroke:#B5E853;stroke-width:3.125;"/><polygon fill="#B5E853" points="216.5833,447.1667,206.6,444.8033,211.4646,448.1287,208.1392,452.9933,216.5833,447.1667" style="stroke:#B5E853;stroke-width:3.125;"/></g><!--link User to UC4--><g id="link_User_UC4"><path d="M69.0208,556.1771 C106.0104,550.1146 181.478,537.7496 238.0301,528.4892 " fill="none" id="User-to-UC4" style="stroke:#B5E853;stroke-width:3.125;"/><polygon fill="#B5E853" points="244.1979,527.4792,234.2728,524.8822,239.058,528.3208,235.6195,533.1061,244.1979,527.4792" style="stroke:#B5E853;stroke-width:3.125;"/></g><!--link User to UC7--><g id="link_User_UC7"><path d="M69.0208,562.5 C99.2604,567.3229 153.1823,575.9419 204.9948,584.2127 " fill="none" id="User-to-UC7" style="stroke:#B5E853;stroke-width:3.125;"/><polygon fill="#B5E853" points="211.1667,585.1979,202.5657,579.6055,206.0235,584.3769,201.2521,587.8347,211.1667,585.1979" style="stroke:#B5E853;stroke-width:3.125;"/></g><!--link User to UC8--><g id="link_User_UC8"><path d="M68.9792,590.3438 C82.0625,608.5938 100.8958,630.625 122.9167,643.75 C150.2917,660.0729 177.4137,668.6781 207.9137,674.5218 " fill="none" id="User-to-UC8" style="stroke:#B5E853;stroke-width:3.125;"/><polygon fill="#B5E853" points="214.0521,675.6979,205.6286,669.8415,208.9368,674.7178,204.0605,678.026,214.0521,675.6979" style="stroke:#B5E853;stroke-width:3.125;"/></g><!--link User to UC9--><g id="link_User_UC9"><path d="M57.6042,603.7813 C66.875,641.625 85.8333,694.5729 122.9167,725 C146.3125,744.1979 170.781,753.5807 200.156,759.2786 " fill="none" id="User-to-UC9" style="stroke:#B5E853;stroke-width:3.125;"/><polygon fill="#B5E853" points="206.2917,760.4688,197.8816,754.5931,201.1786,759.477,196.2948,762.774,206.2917,760.4688" style="stroke:#B5E853;stroke-width:3.125;"/></g><!--link User to UC10--><g id="link_User_UC10"><path d="M49.8542,603.6979 C52.8125,659.1667 66.5208,753.2917 122.9167,806.25 C144.7708,826.7708 168.496,836.6614 197.6523,842.4843 " fill="none" id="User-to-UC10" style="stroke:#B5E853;stroke-width:3.125;"/><polygon fill="#B5E853" points="203.7813,843.7083,195.4038,837.7863,198.6738,842.6883,193.7718,845.9582,203.7813,843.7083" style="stroke:#B5E853;stroke-width:3.125;"/></g><!--link User to UC11--><g id="link_User_UC11"><path d="M53.5521,604.1146 C61.8021,684.75 83.1979,849.7813 122.9167,889.5833 C144.4063,911.1146 168.5431,921.1478 198.1993,926.6686 " fill="none" id="User-to-UC11" style="stroke:#B5E853;stroke-width:3.125;"/><polygon fill="#B5E853" points="204.3438,927.8125,195.8897,922.0004,199.2234,926.8593,194.3645,930.193,204.3438,927.8125" style="stroke:#B5E853;stroke-width:3.125;"/></g><!--link User to UC12--><g id="link_User_UC12"><path d="M51.3542,604.1042 C56.2917,699.5833 72.9271,918.8646 122.9167,970.8333 C150.2292,999.2188 186.6039,1008.9932 223.6039,1012.0036 " fill="none" id="User-to-UC12" style="stroke:#B5E853;stroke-width:3.125;"/><polygon fill="#B5E853" points="229.8333,1012.5104,220.8271,1007.5972,224.6422,1012.088,220.1513,1015.9031,229.8333,1012.5104" style="stroke:#B5E853;stroke-width:3.125;"/></g><!--link User to UC13--><g id="link_User_UC13"><path d="M51.125,514.9167 C55.6771,417.0625 71.6771,187.3854 122.9167,132.2917 C140.5521,113.3333 158.8036,103.4989 183.8557,96.6655 " fill="none" id="User-to-UC13" style="stroke:#B5E853;stroke-width:3.125;"/><polygon fill="#B5E853" points="189.8854,95.0208,179.7444,93.4681,184.8607,96.3914,181.9373,101.5077,189.8854,95.0208" style="stroke:#B5E853;stroke-width:3.125;"/></g><!--link User to UC14--><g id="link_User_UC14"><path d="M53.2188,514.7604 C61.0625,432.0313 81.9896,259.4687 122.9167,217.7083 C142.4583,197.7708 163.3578,187.8318 190.5453,181.5609 " fill="none" id="User-to-UC14" style="stroke:#B5E853;stroke-width:3.125;"/><polygon fill="#B5E853" points="196.6354,180.1563,186.5638,178.2032,191.5603,181.3268,188.4367,186.3234,196.6354,180.1563" style="stroke:#B5E853;stroke-width:3.125;"/></g><!--link User to UC15--><g id="link_User_UC15"><path d="M49.4792,514.8542 C52,458.0208 65.1771,360.4583 122.9167,305.2083 C142.7604,286.2188 163.3017,276.4861 190.01,269.9965 " fill="none" id="User-to-UC15" style="stroke:#B5E853;stroke-width:3.125;"/><polygon fill="#B5E853" points="196.0833,268.5208,185.9896,266.6855,191.0223,269.7506,187.9572,274.7832,196.0833,268.5208" style="stroke:#B5E853;stroke-width:3.125;"/></g><!--link User to UC16--><g id="link_User_UC16"><path d="M58.7083,514.8229 C68.5417,478.4688 87.6979,428.4688 122.9167,398.9583 C141.6979,383.2188 159.1425,374.4614 182.8612,367.4406 " fill="none" id="User-to-UC16" style="stroke:#B5E853;stroke-width:3.125;"/><polygon fill="#B5E853" points="188.8542,365.6667,178.6821,364.3323,183.86,367.1449,181.0473,372.3229,188.8542,365.6667" style="stroke:#B5E853;stroke-width:3.125;"/></g><!--link System to UC2--><g id="link_System_UC2"><path d="M77.4479,1213.3021 C90.7604,1221.4063 107.1771,1230.4271 122.9167,1236.4583 C155.0521,1248.7604 185.7919,1256.5056 217.844,1262.7347 " fill="none" id="System-to-UC2" style="stroke:#B5E853;stroke-width:3.125;"/><polygon fill="#B5E853" points="223.9792,1263.9271,215.5713,1258.0484,218.8665,1262.9335,213.9815,1266.2287,223.9792,1263.9271" style="stroke:#B5E853;stroke-width:3.125;"/></g><!--link System to UC5--><g id="link_System_UC5"><path d="M77.1875,1194.7917 C107.25,1194.7917 150.7917,1194.7917 196.0521,1194.7917 " fill="none" id="System-to-UC5" style="stroke:#B5E853;stroke-width:3.125;"/><polygon fill="#B5E853" points="202.3021,1194.7917,192.9271,1190.625,197.0938,1194.7917,192.9271,1198.9583,202.3021,1194.7917" style="stroke:#B5E853;stroke-width:3.125;"/></g><!--link System to UC6--><g id="link_System_UC6"><path d="M77.2813,1176.9479 C90.6979,1168.8958 107.2396,1159.7188 122.9167,1153.125 C147.1771,1142.9271 168.0642,1135.7454 193.5434,1128.2871 " fill="none" id="System-to-UC6" style="stroke:#B5E853;stroke-width:3.125;"/><polygon fill="#B5E853" points="199.5417,1126.5313,189.3737,1125.1661,194.5431,1127.9944,191.7148,1133.1639,199.5417,1126.5313" style="stroke:#B5E853;stroke-width:3.125;"/></g><!--link Database to UC3--><g id="link_Database_UC3"><path d="M85.9271,1361.4583 C110.5833,1361.4583 138.4896,1361.4583 172.4479,1361.4583 " fill="none" id="Database-to-UC3" style="stroke:#B5E853;stroke-width:3.125;"/><polygon fill="#B5E853" points="178.6979,1361.4583,169.3229,1357.2917,173.4896,1361.4583,169.3229,1365.625,178.6979,1361.4583" style="stroke:#B5E853;stroke-width:3.125;"/></g><!--SRC=[RPFBRi8m44Nt_eefcwwG6Xu1DfKYG9Mg5g46ojgDfucBiP5jQ57LVw_pGdQRNMvyPZptJd9Z2pmW53JReoO2torO1PhdXGN6DMQMAqa8pQpIi3MEgH_JYx5uQCI2Mlf63H9I5b2P2uJUMgiFfo1TGd8y2fxHibKFlWd0oM3cUEYL7U45SswiRiwfWUqyyg6bpFJbQ65DZVbKcZNCm6TIDmTM0rRJ09VNgHfy-E_U9vNpziAHV_g04jqu28-x3MpK7bjgx5CBhCUg0A2ImIiLd9LrSuqCfULKcAOozYjNzCppadDHpml5CtJUydRGIU0BHHdYHZ5wyQ5f1xH3t8k0cdLGpqhQ8iIYkmukaV94HO05Mt4UImihPQ_dmKOInc23NxPAPj6uzUbW8IazrxrAwi_ceb4Okq279KBKgToQgguDEXftmBKbP5VpGKLCVWYfleX-_xxw-3mnyiN45rDVp886Tu4A-hcGV3KCL72PS-AhcDJ_NAC7eHo7CYPjXisBuIy0]--></g></svg>